HIERARCHY
ROOT Hips
{
	OFFSET 0.000000 103.266502 0.000000
	CHANNELS 6 Xposition Yposition Zposition Xrotation Yrotation Zrotation 
	JOINT Spine
	{
		OFFSET -0.002400 12.777504 0.315300
		CHANNELS 3 Xrotation Yrotation Zrotation
		JOINT Spine1
		{
			OFFSET -0.002067 5.816869 0.032633
			CHANNELS 3 Xrotation Yrotation Zrotation
			JOINT Spine1_split
			{
				OFFSET -0.002067 5.816869 0.032633
				CHANNELS 3 Xrotation Yrotation Zrotation
				JOINT Spine2
				{
					OFFSET -0.002067 5.816869 0.032633
					CHANNELS 3 Xrotation Yrotation Zrotation
					JOINT Neck
					{
						OFFSET -0.003700 21.199493 -0.826900
						CHANNELS 3 Xrotation Yrotation Zrotation
						JOINT Head
						{
							OFFSET 0.000000 20.442200 4.834800
							CHANNELS 3 Xrotation Yrotation Zrotation
							JOINT HeadTop_End
							{
								OFFSET 0.000000 34.668396 4.968400
								CHANNELS 3 Xrotation Yrotation Zrotation
								End Site
								{
									OFFSET 0.000000 0.000000 0.000000
								}
							}
						}
					}
					JOINT LeftShoulder
					{
						OFFSET 3.288150 8.794197 -1.372250
						CHANNELS 3 Xrotation Yrotation Zrotation
						JOINT LeftShoulder_split
						{
							OFFSET 3.288150 8.794197 -1.372250
							CHANNELS 3 Xrotation Yrotation Zrotation
							JOINT LeftArm
							{
								OFFSET 11.953299 -2.279007 -0.146200
								CHANNELS 3 Xrotation Yrotation Zrotation
								JOINT LeftForeArm
								{
									OFFSET 18.448900 0.000000 0.000000
									CHANNELS 3 Xrotation Yrotation Zrotation
									JOINT LeftHand
									{
										OFFSET 29.527798 0.000000 0.000000
										CHANNELS 3 Xrotation Yrotation Zrotation
										JOINT LeftHandThumb1
										{
											OFFSET 10.739754 -2.369614 9.225399
											CHANNELS 3 Xrotation Yrotation Zrotation
											JOINT LeftHandThumb2
											{
												OFFSET 4.926170 -2.844131 2.844125
												CHANNELS 3 Xrotation Yrotation Zrotation
												JOINT LeftHandThumb3
												{
													OFFSET 4.614891 -2.664413 2.664409
													CHANNELS 3 Xrotation Yrotation Zrotation
													JOINT LeftHandThumb4
													{
														OFFSET 4.432465 -2.559082 2.559083
														CHANNELS 3 Xrotation Yrotation Zrotation
														End Site
														{
															OFFSET 0.000000 0.000000 0.000000
														}
													}
												}
											}
										}
										JOINT LeftHandIndex1
										{
											OFFSET 26.467674 0.187653 6.405298
											CHANNELS 3 Xrotation Yrotation Zrotation
											JOINT LeftHandIndex2
											{
												OFFSET 8.792900 0.000000 0.000000
												CHANNELS 3 Xrotation Yrotation Zrotation
												JOINT LeftHandIndex3
												{
													OFFSET 10.075203 0.000000 0.000000
													CHANNELS 3 Xrotation Yrotation Zrotation
													End Site
													{
														OFFSET 0.000000 0.000000 0.000000
													}
												}
											}
										}
										JOINT LeftHandMiddle1
										{
											OFFSET 25.764404 0.000000 0.000000
											CHANNELS 3 Xrotation Yrotation Zrotation
											JOINT LeftHandMiddle2
											{
												OFFSET 9.393974 0.000000 0.000000
												CHANNELS 3 Xrotation Yrotation Zrotation
												JOINT LeftHandMiddle3
												{
													OFFSET 10.771950 0.000000 0.000000
													CHANNELS 3 Xrotation Yrotation Zrotation
													End Site
													{
														OFFSET 0.000000 0.000000 0.000000
													}
												}
											}
										}
										JOINT LeftHandRing1
										{
											OFFSET 24.660927 0.144547 -6.225808
											CHANNELS 3 Xrotation Yrotation Zrotation
											JOINT LeftHandRing2
											{
												OFFSET 9.393799 0.000000 0.000000
												CHANNELS 3 Xrotation Yrotation Zrotation
												JOINT LeftHandRing3
												{
													OFFSET 9.928497 0.000000 0.000000
													CHANNELS 3 Xrotation Yrotation Zrotation
													End Site
													{
														OFFSET 0.000000 0.000000 0.000000
													}
												}
											}
										}
										JOINT LeftHandPinky1
										{
											OFFSET 23.655350 0.125290 -12.815412
											CHANNELS 3 Xrotation Yrotation Zrotation
											JOINT LeftHandPinky2
											{
												OFFSET 8.425102 0.000000 0.000000
												CHANNELS 3 Xrotation Yrotation Zrotation
												JOINT LeftHandPinky3
												{
													OFFSET 8.147003 0.000000 0.000000
													CHANNELS 3 Xrotation Yrotation Zrotation
													End Site
													{
														OFFSET 0.000000 0.000000 0.000000
													}
												}
											}
										}
									}
								}
							}
						}
					}
					JOINT RightShoulder
					{
						OFFSET -3.249400 8.794197 -1.372250
						CHANNELS 3 Xrotation Yrotation Zrotation
						JOINT RightShoulder_split
						{
							OFFSET -3.249400 8.794197 -1.372250
							CHANNELS 3 Xrotation Yrotation Zrotation
							JOINT RightArm
							{
								OFFSET -11.953299 -2.279007 -0.146200
								CHANNELS 3 Xrotation Yrotation Zrotation
								JOINT RightForeArm
								{
									OFFSET -18.448900 0.000000 0.000000
									CHANNELS 3 Xrotation Yrotation Zrotation
									JOINT RightHand
									{
										OFFSET -29.527802 0.000000 0.000000
										CHANNELS 3 Xrotation Yrotation Zrotation
										JOINT RightHandThumb1
										{
											OFFSET -10.739754 -2.369614 9.225399
											CHANNELS 3 Xrotation Yrotation Zrotation
											JOINT RightHandThumb2
											{
												OFFSET -4.926170 -2.844131 2.844125
												CHANNELS 3 Xrotation Yrotation Zrotation
												JOINT RightHandThumb3
												{
													OFFSET -4.614891 -2.664413 2.664409
													CHANNELS 3 Xrotation Yrotation Zrotation
													JOINT RightHandThumb4
													{
														OFFSET -4.432465 -2.559082 2.559083
														CHANNELS 3 Xrotation Yrotation Zrotation
														End Site
														{
															OFFSET 0.000000 0.000000 0.000000
														}
													}
												}
											}
										}
										JOINT RightHandIndex1
										{
											OFFSET -26.467674 0.187653 6.405298
											CHANNELS 3 Xrotation Yrotation Zrotation
											JOINT RightHandIndex2
											{
												OFFSET -8.792900 0.000000 0.000000
												CHANNELS 3 Xrotation Yrotation Zrotation
												JOINT RightHandIndex3
												{
													OFFSET -10.075203 0.000000 0.000000
													CHANNELS 3 Xrotation Yrotation Zrotation
													End Site
													{
														OFFSET 0.000000 0.000000 0.000000
													}
												}
											}
										}
										JOINT RightHandMiddle1
										{
											OFFSET -25.764404 0.000000 0.000000
											CHANNELS 3 Xrotation Yrotation Zrotation
											JOINT RightHandMiddle2
											{
												OFFSET -9.393974 0.000000 0.000000
												CHANNELS 3 Xrotation Yrotation Zrotation
												JOINT RightHandMiddle3
												{
													OFFSET -10.771950 0.000000 0.000000
													CHANNELS 3 Xrotation Yrotation Zrotation
													End Site
													{
														OFFSET 0.000000 0.000000 0.000000
													}
												}
											}
										}
										JOINT RightHandRing1
										{
											OFFSET -24.660927 0.144547 -6.225808
											CHANNELS 3 Xrotation Yrotation Zrotation
											JOINT RightHandRing2
											{
												OFFSET -9.393799 0.000000 0.000000
												CHANNELS 3 Xrotation Yrotation Zrotation
												JOINT RightHandRing3
												{
													OFFSET -9.928497 0.000000 0.000000
													CHANNELS 3 Xrotation Yrotation Zrotation
													End Site
													{
														OFFSET 0.000000 0.000000 0.000000
													}
												}
											}
										}
										JOINT RightHandPinky1
										{
											OFFSET -23.655350 0.125290 -12.815412
											CHANNELS 3 Xrotation Yrotation Zrotation
											JOINT RightHandPinky2
											{
												OFFSET -8.425102 0.000000 0.000000
												CHANNELS 3 Xrotation Yrotation Zrotation
												JOINT RightHandPinky3
												{
													OFFSET -8.147003 0.000000 0.000000
													CHANNELS 3 Xrotation Yrotation Zrotation
													End Site
													{
														OFFSET 0.000000 0.000000 0.000000
													}
												}
											}
										}
									}
								}
							}
						}
					}
				}
			}
		}
	}
	JOINT LeftUpLeg
	{
		OFFSET 11.394100 -6.187798 -0.413800
		CHANNELS 3 Xrotation Yrotation Zrotation
		JOINT LeftLeg
		{
			OFFSET 0.430247 -32.302673 3.732800
			CHANNELS 3 Xrotation Yrotation Zrotation
			JOINT LeftFoot
			{
				OFFSET -0.430247 -48.264931 -6.423300
				CHANNELS 3 Xrotation Yrotation Zrotation
				JOINT LeftToeBase
				{
					OFFSET 4.230900 -16.068199 23.438400
					CHANNELS 3 Xrotation Yrotation Zrotation
					JOINT LeftToe_End
					{
						OFFSET 4.510700 0.695400 19.974600
						CHANNELS 3 Xrotation Yrotation Zrotation
						End Site
						{
							OFFSET 0.000000 0.000000 0.000000
						}
					}
				}
			}
		}
	}
	JOINT RightUpLeg
	{
		OFFSET -11.333700 -6.187798 -0.413800
		CHANNELS 3 Xrotation Yrotation Zrotation
		JOINT RightLeg
		{
			OFFSET -0.430392 -32.302628 3.733000
			CHANNELS 3 Xrotation Yrotation Zrotation
			JOINT RightFoot
			{
				OFFSET 0.430392 -48.264973 -6.423500
				CHANNELS 3 Xrotation Yrotation Zrotation
				JOINT RightToeBase
				{
					OFFSET -4.230900 -16.068199 23.438400
					CHANNELS 3 Xrotation Yrotation Zrotation
					JOINT RightToe_End
					{
						OFFSET -4.510700 0.695400 19.974600
						CHANNELS 3 Xrotation Yrotation Zrotation
						End Site
						{
							OFFSET 0.000000 0.000000 0.000000
						}
					}
				}
			}
		}
	}
}
MOTION
Frames: 6
Frame Time: 0.016667
0.079225 82.588409 0.059019 11.722970 3.044873 -1.283927 9.927188 1.446870 1.195304 7.645332 0.753229 0.067568 0.000000 0.000000 0.000000 7.636953 0.840686 0.048856 -11.425855 -1.903121 7.327010 -27.420392 2.052766 -6.271739 0.000000 0.000000 0.000000 3.557351 -26.212553 4.772371 0.000000 0.000000 0.000000 -62.403265 -21.804180 -66.738994 0.000018 -109.450441 0.000029 0.778314 -4.236624 14.397171 -15.245209 10.163082 26.456297 3.939042 7.948701 0.746818 -0.579449 1.575004 2.538712 -0.000001 -0.000003 -0.000001 0.000005 0.000000 0.000002 0.000006 0.000007 -0.000069 0.000000 0.000003 -0.000003 0.000000 -0.001933 0.015986 0.000003 0.001943 -0.016050 0.000001 0.000000 0.000000 0.000004 0.000001 0.000002 0.000006 0.000010 -0.000066 0.000000 0.000001 -0.000002 -0.018084 4.054256 0.511073 -0.018084 -4.054244 -0.511134 -0.000000 -0.000001 -0.000001 1.209611 13.189590 10.689359 0.000000 0.000000 0.000000 -58.736799 43.251203 51.659842 0.000098 106.371850 -0.000127 2.773283 -4.037756 -38.887709 -6.948220 -5.049357 -29.742994 4.637192 -8.634125 -0.225405 -1.273747 0.137304 -2.094871 0.000000 0.000003 0.000004 -0.000005 -0.000001 0.000001 0.000010 -0.000003 0.000086 0.000000 -0.000000 -0.000000 -0.000003 -0.000001 -0.000004 0.000012 -0.000006 0.000089 0.000000 -0.000002 0.000000 -0.000005 -0.000001 0.000001 0.000010 -0.000003 0.000086 -0.000000 -0.000000 -0.000000 -0.000004 0.000000 0.000001 0.000010 -0.000005 0.000086 -0.000000 0.000002 -0.000000 -64.693161 0.459455 5.436923 76.109918 7.859307 -0.592571 -22.192569 4.601119 -4.790943 -0.000003 -0.000003 -0.000001 -0.000000 0.000002 -0.000000 -62.274045 -13.478395 -7.971897 75.066894 -8.296320 -4.598895 -25.831849 -9.091571 3.264927 -0.000003 -0.000003 0.000000 -0.000000 -0.000000 0.000000 
0.081799 82.591492 0.062922 11.745648 3.040523 -1.289736 9.918827 1.455206 1.187000 7.639423 0.760470 0.063173 0.000000 0.000000 0.000000 7.630967 0.847823 0.044426 -11.435406 -1.910256 7.339549 -27.433916 2.035674 -6.273735 -0.000000 0.000000 0.000000 3.557350 -26.212550 4.772371 0.000000 0.000000 0.000000 -62.419337 -21.858357 -66.778664 0.000019 -109.501361 0.000020 0.901638 -4.326301 14.359160 -15.245208 10.163082 26.456301 3.939044 7.948706 0.746820 -0.579451 1.575001 2.538713 -0.000000 0.000001 0.000001 0.000005 -0.000001 0.000002 0.000006 0.000011 -0.000069 -0.000001 0.000001 -0.000001 -0.000000 -0.001929 0.015986 0.000003 0.001942 -0.016048 0.000002 0.000001 0.000000 0.000005 -0.000002 0.000003 0.000006 0.000012 -0.000068 0.000002 0.000001 0.000001 -0.018086 4.054260 0.511073 -0.018082 -4.054244 -0.511137 0.000002 0.000000 0.000001 1.208783 13.185488 10.706559 0.000000 0.000000 0.000000 -58.718481 43.222537 51.623150 -0.000042 106.496398 0.000039 2.902274 -4.000204 -38.894772 -6.948219 -5.049358 -29.742991 4.637193 -8.634131 -0.225402 -1.273752 0.137300 -2.094866 0.000001 0.000003 0.000000 -0.000004 -0.000000 0.000001 0.000010 -0.000008 0.000086 -0.000000 0.000001 -0.000000 -0.000003 0.000002 -0.000005 0.000012 -0.000003 0.000089 0.000000 0.000002 0.000000 -0.000004 -0.000000 0.000001 0.000010 -0.000008 0.000086 -0.000000 0.000001 -0.000000 -0.000004 -0.000001 0.000001 0.000010 -0.000008 0.000086 -0.000000 0.000001 -0.000000 -64.711248 0.447481 5.459507 76.110075 7.854928 -0.621005 -22.187726 4.600526 -4.781240 -0.000003 -0.000005 -0.000001 -0.000000 0.000002 -0.000000 -62.287760 -13.484075 -7.961529 75.055077 -8.303706 -4.607024 -25.828021 -9.089888 3.271164 -0.000003 -0.000005 0.000000 0.000000 -0.000000 -0.000000 
0.085079 82.593201 0.067623 11.766266 3.035198 -1.299734 9.910030 1.466150 1.180202 7.633180 0.769257 0.058698 0.000000 0.000000 0.000000 7.624624 0.856615 0.039882 -11.444190 -1.923865 7.361598 -27.436178 1.999900 -6.276383 0.000000 -0.000000 0.000000 3.557348 -26.212552 4.772371 0.000000 0.000000 0.000000 -62.439554 -21.913835 -66.819563 -0.000033 -109.545791 -0.000018 1.016392 -4.380408 14.319702 -15.245208 10.163077 26.456302 3.939043 7.948704 0.746819 -0.579450 1.574999 2.538711 0.000002 -0.000001 0.000000 0.000004 -0.000006 0.000003 0.000007 0.000008 -0.000069 -0.000000 -0.000001 0.000000 -0.000003 -0.001933 0.015985 0.000001 0.001944 -0.016048 -0.000000 -0.000000 0.000001 0.000003 -0.000007 0.000004 0.000006 0.000010 -0.000069 -0.000001 0.000003 0.000002 -0.018086 4.054251 0.511074 -0.018083 -4.054245 -0.511133 0.000000 -0.000001 0.000003 1.207726 13.175770 10.734722 0.000000 0.000000 0.000000 -58.706862 43.206117 51.589624 0.000102 106.607245 -0.000119 2.994825 -3.971782 -38.905987 -6.948219 -5.049359 -29.742991 4.637192 -8.634128 -0.225405 -1.273749 0.137299 -2.094869 -0.000002 0.000000 0.000002 -0.000005 -0.000003 0.000001 0.000010 -0.000005 0.000086 0.000000 0.000000 0.000000 -0.000003 -0.000004 -0.000005 0.000012 -0.000004 0.000089 0.000000 0.000002 -0.000000 -0.000005 -0.000003 0.000001 0.000010 -0.000005 0.000086 -0.000000 0.000000 0.000000 -0.000005 -0.000003 0.000001 0.000010 -0.000005 0.000086 -0.000000 -0.000000 -0.000000 -64.731076 0.429639 5.484574 76.116625 7.847724 -0.653466 -22.181787 4.611893 -4.768319 -0.000003 -0.000006 -0.000001 0.000000 -0.000000 -0.000000 -62.299207 -13.493450 -7.950416 75.045016 -8.310096 -4.613985 -25.825328 -9.088467 3.277302 -0.000003 -0.000003 0.000000 -0.000000 -0.000000 0.000000 
0.089421 82.593628 0.073259 11.784694 3.028793 -1.312779 9.900995 1.480183 1.174419 7.626658 0.780095 0.054113 0.000000 0.000000 0.000000 7.617970 0.867544 0.035189 -11.454970 -1.944256 7.391725 -27.423194 1.943258 -6.281664 -0.000000 0.000000 -0.000000 3.557351 -26.212553 4.772371 0.000000 0.000000 0.000000 -62.470372 -21.974015 -66.864513 -0.000031 -109.579723 -0.000021 1.123962 -4.400891 14.281693 -15.245209 10.163084 26.456306 3.939041 7.948704 0.746819 -0.579449 1.575004 2.538712 -0.000001 -0.000001 0.000000 0.000004 -0.000001 0.000002 0.000005 0.000011 -0.000070 -0.000001 0.000001 0.000000 -0.000000 -0.001934 0.015986 0.000004 0.001944 -0.016050 -0.000000 0.000003 0.000003 0.000005 -0.000002 0.000003 0.000005 0.000011 -0.000068 -0.000001 0.000003 0.000000 -0.018086 4.054259 0.511074 -0.018083 -4.054243 -0.511135 0.000001 0.000001 0.000000 1.206699 13.162152 10.768369 0.000000 0.000000 0.000000 -58.707621 43.191152 51.562710 0.000162 106.707062 -0.000184 3.052719 -3.952017 -38.913319 -6.948220 -5.049360 -29.742991 4.637190 -8.634123 -0.225405 -1.273752 0.137305 -2.094867 0.000001 0.000002 0.000004 -0.000005 0.000003 0.000001 0.000010 -0.000006 0.000086 -0.000000 0.000001 -0.000000 -0.000004 0.000002 -0.000004 0.000012 -0.000005 0.000088 -0.000000 -0.000005 -0.000000 -0.000005 0.000004 0.000001 0.000010 -0.000006 0.000086 -0.000000 0.000001 0.000000 -0.000005 0.000003 0.000001 0.000010 -0.000006 0.000085 -0.000000 0.000001 0.000000 -64.751621 0.411632 5.510107 76.127622 7.838196 -0.684102 -22.176118 4.631741 -4.753283 -0.000003 -0.000003 -0.000001 -0.000000 -0.000001 -0.000000 -62.308032 -13.504971 -7.940524 75.036595 -8.315980 -4.618492 -25.823718 -9.085277 3.283724 -0.000003 -0.000005 0.000000 -0.000000 -0.000000 0.000000 
0.095217 82.593430 0.079834 11.802075 3.020936 -1.327048 9.892172 1.497064 1.168734 7.619997 0.793060 0.049375 0.000000 0.000000 0.000000 7.611132 0.880647 0.030305 -11.470302 -1.969856 7.427051 -27.400907 1.869801 -6.289241 -0.000000 -0.000000 0.000000 3.557352 -26.212552 4.772371 0.000000 0.000000 0.000000 -62.514167 -22.042320 -66.916046 0.000018 -109.608827 0.000020 1.236724 -4.410138 14.244743 -15.245209 10.163076 26.456299 3.939046 7.948704 0.746818 -0.579450 1.575002 2.538711 -0.000002 0.000000 0.000001 0.000004 -0.000007 0.000003 0.000006 0.000011 -0.000067 -0.000002 -0.000001 0.000000 -0.000002 -0.001933 0.015987 0.000003 0.001941 -0.016047 -0.000000 0.000001 0.000002 0.000005 -0.000008 0.000003 0.000005 0.000015 -0.000068 0.000001 -0.000001 0.000001 -0.018085 4.054251 0.511072 -0.018082 -4.054239 -0.511136 -0.000001 0.000002 0.000001 1.205948 13.146151 10.801880 0.000000 0.000000 0.000000 -58.722674 43.168575 51.544067 -0.000051 106.809412 0.000038 3.102360 -3.933555 -38.909665 -6.948220 -5.049360 -29.742991 4.637190 -8.634127 -0.225405 -1.273750 0.137305 -2.094867 -0.000001 -0.000001 -0.000000 -0.000005 -0.000003 0.000000 0.000010 -0.000003 0.000086 0.000000 0.000002 -0.000000 -0.000003 -0.000004 -0.000005 0.000012 -0.000002 0.000088 -0.000000 0.000002 -0.000001 -0.000005 -0.000003 0.000001 0.000010 -0.000003 0.000086 0.000000 -0.000000 -0.000000 -0.000005 -0.000003 0.000001 0.000010 -0.000004 0.000086 0.000000 -0.000000 -0.000001 -64.771579 0.399810 5.533709 76.139629 7.827379 -0.706932 -22.173944 4.654594 -4.737680 -0.000003 -0.000006 -0.000001 0.000000 -0.000001 0.000000 -62.315675 -13.516232 -7.933891 75.029444 -8.322369 -4.619657 -25.823286 -9.078129 3.290879 -0.000003 -0.000005 0.000000 -0.000000 -0.000000 -0.000000 
0.102684 82.593498 0.087313 11.820036 3.011148 -1.340718 9.883760 1.515710 1.162364 7.613309 0.807592 0.044600 0.000000 0.000000 0.000000 7.604248 0.895364 0.025347 -11.490449 -1.997045 7.463692 -27.382792 1.790934 -6.296956 -0.000000 0.000000 -0.000000 3.557349 -26.212552 4.772371 0.000000 0.000000 0.000000 -62.567251 -22.118488 -66.973461 0.000006 -109.642800 0.000026 1.366186 -4.438059 14.205773 -15.245209 10.163081 26.456297 3.939045 7.948705 0.746819 -0.579454 1.574996 2.538711 0.000000 0.000000 0.000000 0.000002 -0.000004 0.000002 0.000005 0.000008 -0.000071 0.000001 -0.000003 -0.000002 -0.000001 -0.001932 0.015984 0.000003 0.001937 -0.016048 0.000002 0.000003 -0.000001 0.000003 -0.000005 0.000003 0.000005 0.000010 -0.000070 -0.000001 0.000000 0.000001 -0.018085 4.054250 0.511072 -0.018085 -4.054239 -0.511135 -0.000001 0.000000 0.000001 1.205643 13.127823 10.832414 0.000000 0.000000 0.000000 -58.749367 43.137986 51.533876 -0.000050 106.926632 0.000039 3.177656 -3.907288 -38.893546 -6.948220 -5.049358 -29.742991 4.637191 -8.634125 -0.225410 -1.273751 0.137304 -2.094870 -0.000002 0.000001 0.000000 -0.000004 -0.000003 0.000000 0.000010 -0.000005 0.000086 -0.000000 0.000002 -0.000001 -0.000003 0.000001 -0.000005 0.000012 -0.000003 0.000088 -0.000000 0.000002 -0.000000 -0.000004 -0.000003 0.000001 0.000010 -0.000005 0.000085 -0.000000 0.000002 -0.000000 -0.000004 -0.000003 0.000000 0.000010 -0.000005 0.000085 -0.000000 0.000002 -0.000000 -64.790526 0.397950 5.553643 76.149192 7.816783 -0.718525 -22.175553 4.675266 -4.722997 -0.000003 -0.000006 -0.000001 0.000000 -0.000001 -0.000000 -62.323379 -13.525330 -7.931811 75.022422 -8.329754 -4.617265 -25.822835 -9.065317 3.299368 -0.000003 -0.000005 0.000000 0.000000 -0.000000 0.000000 
